<svg width="24" height="24" viewBox="0 0 24 24" fill="none" xmlns="http://www.w3.org/2000/svg">
<path d="M7.30469 6.00781V7.125C7.30469 7.23244 7.39256 7.32031 7.5 7.32031H8.8125C8.91994 7.32031 9.00781 7.23244 9.00781 7.125V6.00781H14.9922V7.125C14.9922 7.23244 15.0801 7.32031 15.1875 7.32031H16.5C16.6074 7.32031 16.6953 7.23244 16.6953 7.125V6.00781H19.6797V9.17969H4.32031V6.00781H7.30469Z" fill="#5E5B61" stroke="#5E5B61" stroke-width="0.015625"/>
<path d="M7.5 2.63281H8.8125C8.91131 2.63281 8.99219 2.71369 8.99219 2.8125V4.3125H9V4.32031H15V4.3125H15.0078V2.8125C15.0078 2.71369 15.0887 2.63281 15.1875 2.63281H16.5C16.5988 2.63281 16.6797 2.71369 16.6797 2.8125V4.3125H16.6875V4.32031H20.625C21.0355 4.32031 21.3672 4.65197 21.3672 5.0625V20.625C21.3672 21.0355 21.0355 21.3672 20.625 21.3672H3.375C2.96447 21.3672 2.63281 21.0355 2.63281 20.625V5.0625C2.63281 4.65197 2.96447 4.32031 3.375 4.32031H7.3125V4.3125H7.32031V2.8125C7.32031 2.71369 7.40119 2.63281 7.5 2.63281ZM4.3125 10.7812H4.30469V19.6875H4.3125V19.6953H19.6875V19.6875H19.6953V10.7812H19.6875V10.7734H4.3125V10.7812ZM4.3125 6H4.30469V9.1875H4.3125V9.19531H19.6875V9.1875H19.6953V6H19.6875V5.99219H16.6875V6H16.6797V7.125C16.6797 7.22381 16.5988 7.30469 16.5 7.30469H15.1875C15.0887 7.30469 15.0078 7.22381 15.0078 7.125V6H15V5.99219H9V6H8.99219V7.125C8.99219 7.22381 8.91131 7.30469 8.8125 7.30469H7.5C7.40119 7.30469 7.32031 7.22381 7.32031 7.125V6H7.3125V5.99219H4.3125V6Z" fill="#5E5B61" stroke="#5E5B61" stroke-width="0.015625"/>
</svg>
