<svg width="24" height="24" viewBox="0 0 24 24" fill="none" xmlns="http://www.w3.org/2000/svg">
<path d="M12 7.37698L11.5479 7.79374C11.6065 7.85192 11.6767 7.89819 11.7544 7.9298C11.8321 7.9614 11.9156 7.97769 12 7.97769C12.0844 7.97769 12.1679 7.9614 12.2456 7.9298C12.3233 7.89819 12.3935 7.85192 12.4521 7.79374L12 7.37698ZM9.84502 17.6533C8.57581 16.6956 7.18856 15.7603 6.08763 14.5741C5.0093 13.4104 4.25581 12.0535 4.25581 10.2919H3C3 12.4286 3.9293 14.0588 5.14912 15.3724C6.34633 16.6627 7.8734 17.6966 9.06726 18.5974L9.84502 17.6533ZM4.25581 10.2919C4.25581 8.56875 5.27302 7.12292 6.66195 6.51461C8.01153 5.92393 9.82493 6.08022 11.5479 7.79374L12.4521 6.96102C10.4093 4.92771 8.03498 4.5919 6.13953 5.42141C4.28595 6.23329 3 8.11833 3 10.2919H4.25581ZM9.06726 18.5974C9.49674 18.9212 9.95721 19.2659 10.4235 19.5271C10.8899 19.7884 11.4223 20 12 20V18.7978C11.7405 18.7978 11.4357 18.7016 11.0573 18.4892C10.678 18.2777 10.2854 17.9859 9.84502 17.6533L9.06726 18.5974ZM14.9327 18.5974C16.1266 17.6958 17.6537 16.6635 18.8509 15.3724C20.0707 14.058 21 12.4286 21 10.2919H19.7442C19.7442 12.0535 18.9907 13.4104 17.9124 14.5741C16.8114 15.7603 15.4242 16.6956 14.155 17.6533L14.9327 18.5974ZM21 10.2919C21 8.11833 19.7149 6.23329 17.8605 5.42141C15.965 4.5919 13.5924 4.92771 11.5479 6.96022L12.4521 7.79374C14.1751 6.08102 15.9885 5.92393 17.338 6.51461C18.727 7.12292 19.7442 8.56795 19.7442 10.2919H21ZM14.155 17.6533C13.7146 17.9859 13.322 18.2777 12.9427 18.4892C12.5634 18.7008 12.2595 18.7978 12 18.7978V20C12.5777 20 13.1101 19.7876 13.5765 19.5271C14.0436 19.2659 14.5033 18.9212 14.9327 18.5974L14.155 17.6533Z" fill="#FD818B"/>
<circle cx="8" cy="11" r="5" fill="#FD818B"/>
<circle cx="16" cy="11" r="5" fill="#FD818B"/>
<circle cx="12" cy="14" r="5" fill="#FD818B"/>
</svg>
