<svg width="24" height="24" viewBox="0 0 24 24" fill="none" xmlns="http://www.w3.org/2000/svg">
<path d="M11.9961 4.5C12.3062 4.5 12.5735 4.58613 12.8125 4.75977V4.76074L18.9668 9.26562L18.9727 9.26953C19.1374 9.38625 19.2646 9.53341 19.3584 9.71582L19.3594 9.71777C19.4537 9.89974 19.5 10.0888 19.5 10.291V19.8955C19.4999 20.0457 19.4484 20.1773 19.3105 20.3105C19.1726 20.4438 19.0289 20.4999 18.8574 20.5H14.9893C14.8477 20.4999 14.7556 20.4581 14.6787 20.3838C14.6025 20.3093 14.5665 20.2281 14.5664 20.1074V14.8379C14.5664 14.4539 14.4256 14.1108 14.1484 13.8428C13.8719 13.5754 13.5252 13.4443 13.1426 13.4443H10.8574C10.4756 13.4443 10.1294 13.5748 9.85352 13.8418C9.57532 14.1096 9.43359 14.4532 9.43359 14.8379V20.1084C9.43357 20.2295 9.39737 20.3101 9.32129 20.3838C9.24409 20.4584 9.1522 20.4999 9.01172 20.5H5.14258C4.97113 20.4999 4.82744 20.4438 4.68945 20.3105C4.55163 20.1773 4.50011 20.0457 4.5 19.8955V10.291L4.50879 10.1416C4.52613 9.99459 4.56983 9.85431 4.64062 9.71777C4.71169 9.58076 4.80125 9.46358 4.91113 9.36426L5.0332 9.2666L11.1875 4.76074L11.1895 4.75879C11.4226 4.58668 11.6858 4.50009 11.9961 4.5Z" fill="#5E5B61" stroke="#5E5B61"/>
</svg>
