<svg width="24" height="24" viewBox="0 0 24 24" fill="none" xmlns="http://www.w3.org/2000/svg">
<path d="M4 19.895V10.2906C4 10.0077 4.06552 9.73996 4.19657 9.48729C4.32762 9.23462 4.50819 9.02652 4.73829 8.86298L10.8926 4.35691C11.2149 4.11897 11.5829 4 11.9966 4C12.4103 4 12.7806 4.11897 13.1074 4.35691L19.2617 8.86188C19.4926 9.02541 19.6731 9.23389 19.8034 9.48729C19.9345 9.73996 20 10.0077 20 10.2906V19.895C20 20.1912 19.8861 20.4494 19.6583 20.6696C19.4305 20.8899 19.1634 21 18.8571 21H14.9897C14.7276 21 14.5082 20.9145 14.3314 20.7436C14.1547 20.572 14.0663 20.3599 14.0663 20.1072V14.8376C14.0663 14.5849 13.9779 14.3731 13.8011 14.2022C13.6236 14.0306 13.4042 13.9448 13.1429 13.9448H10.8571C10.5958 13.9448 10.3768 14.0306 10.2 14.2022C10.0225 14.3731 9.93371 14.5849 9.93371 14.8376V20.1083C9.93371 20.361 9.84533 20.5727 9.66857 20.7436C9.49181 20.9145 9.27276 21 9.01143 21H5.14286C4.83657 21 4.56952 20.8899 4.34171 20.6696C4.1139 20.4494 4 20.1912 4 19.895Z" fill="#C4C2C6"/>
</svg>
