<?xml version="1.0" encoding="utf-8"?>
<!-- Generator: Adobe Illustrator 25.0.1, SVG Export Plug-In . SVG Version: 6.00 Build 0)  -->
<svg version="1.1" id="Layer_1" xmlns="http://www.w3.org/2000/svg" xmlns:xlink="http://www.w3.org/1999/xlink" x="0px" y="0px"
	 viewBox="0 0 185.71 34.02" style="enable-background:new 0 0 185.71 34.02;" xml:space="preserve">
<style type="text/css">
	.st0{fill:#004A8D;}
	.st1{fill:#66B2FE;}
	.st2{fill:#3C3C3C;}
</style>
<g>
	<g>
		<path class="st0" d="M12.5,33.86c5.51-2.19,11.02-4.39,16.52-6.58c5.8-2.31,8.76-8.76,6.73-14.66c-2.03-5.9-8.33-9.17-14.32-7.43
			C18.45,14.75,15.47,24.31,12.5,33.86z"/>
		<path class="st1" d="M11.71,0C2.86,0-2.78,9.44,1.41,17.23c2.81,5.22,5.62,10.44,8.43,15.67c0.8,1.49,2.94,1.49,3.74,0
			c2.81-5.22,5.62-10.44,8.43-15.67C26.2,9.44,20.55,0,11.71,0z M11.71,17.01c-2.94,0-5.31-2.38-5.31-5.31
			c0-2.94,2.38-5.31,5.31-5.31c2.94,0,5.31,2.38,5.31,5.31C17.02,14.63,14.64,17.01,11.71,17.01z"/>
	</g>
	<g>
		<g>
			<path class="st2" d="M155.6,7.65c-5.17,0-9.35,4.19-9.35,9.35c0,1.3,0,2.6,0,3.9c0,0.43-0.35,0.78-0.78,0.78
				c-0.78,0-1.56,0-2.34,0c-2.58,0-4.68-2.09-4.68-4.68c0-1.56,0-3.12,0-4.68c1.56,0,3.12,0,4.68,0c1.29,0,2.34-1.05,2.34-2.34
				c0-1.29-1.05-2.34-2.34-2.34c-1.56,0-3.12,0-4.68,0c0-1.3,0-2.6,0-3.9c0-1.29-1.05-2.34-2.34-2.34c-1.29,0-2.34,1.05-2.34,2.34
				c0,4.42,0,8.83,0,13.25c0,5.17,4.19,9.35,9.35,9.35c1.04,0,2.08,0,3.12,0c2.58,0,4.68-2.09,4.68-4.68c0-1.56,0-3.12,0-4.68
				c0-2.58,2.09-4.68,4.68-4.68c1.29,0,2.34-1.05,2.34-2.34C157.94,8.7,156.9,7.65,155.6,7.65z"/>
			<path class="st2" d="M182.95,10.39c-5.89-5.89-15.97-1.72-15.97,6.61c0,1.56,0,3.12,0,4.68c-0.68,0-1.35,0-2.03,0
				c-0.43,0-0.78-0.35-0.78-0.78c0-3.64,0-7.28,0-10.91c0-1.29-1.05-2.34-2.34-2.34c-1.29,0-2.34,1.05-2.34,2.34
				c0,3.9,0,7.8,0,11.69c0,2.58,2.09,4.68,4.68,4.68c0.94,0,1.87,0,2.81,0c0,1.82,0,2.08,0,3.9c0,1.29,1.05,2.34,2.34,2.34
				c1.29,0,2.34-1.05,2.34-2.34c0-4.94,0-8.31,0-13.25c0-4.17,5.04-6.25,7.98-3.31c2.95,2.95,0.86,7.98-3.31,7.98
				c-1.04,0-2.08,0-3.12,0c0,1.56,0,3.12,0,4.68c1.04,0,2.08,0,3.12,0C184.67,26.36,188.85,16.29,182.95,10.39z"/>
			
				<ellipse transform="matrix(0.3827 -0.9239 0.9239 0.3827 96.7248 151.6469)" class="st2" cx="161.84" cy="3.44" rx="2.65" ry="2.65"/>
		</g>
		<path class="st2" d="M64.03,24.09c2.16-3.6,4.33-7.2,6.49-10.8c0.2-0.33,0.58-0.23,0.58,0.16c0,2.74,0,5.49,0,8.23
			c0,4.74,6.24,6.47,8.69,2.41c1.9-3.17,3.8-6.33,5.71-9.5c2.6-4.32,9.26-2.04,8.65,2.97c-0.61,5.01-7.62,5.64-9.11,0.82
			c-0.92,1.52-1.83,3.05-2.75,4.57c4.11,4.98,11.91,4.4,15.23-1.14c1.45-2.41,2.9-4.82,4.34-7.23c2.6-4.32,9.26-2.04,8.65,2.97
			c-0.61,5.01-7.62,5.64-9.11,0.82c-0.92,1.52-1.83,3.05-2.75,4.57c4.11,4.98,11.91,4.4,15.23-1.14c1.45-2.41,2.9-4.82,4.34-7.23
			c2.6-4.32,9.26-2.04,8.65,2.97c-0.61,5.01-7.62,5.64-9.11,0.82c-0.92,1.52-1.83,3.05-2.75,4.57c5.58,6.77,16.57,2.82,16.57-5.95
			c0-4.42,0-8.83,0-13.25c0-1.29-1.05-2.34-2.34-2.34s-2.34,1.05-2.34,2.34c0,1.72,0,3.43,0,5.15c-4.42-2.55-10.07-1.09-12.7,3.28
			c-0.06,0.09-0.11,0.19-0.17,0.28c-3.49-6.3-12.49-6.46-16.2-0.28c-0.06,0.09-0.11,0.19-0.17,0.28c-3.49-6.3-12.49-6.46-16.2-0.28
			c-1.71,2.84-3.42,5.69-5.13,8.53c-0.2,0.33-0.58,0.23-0.58-0.16c0-2.74,0-5.49,0-8.23c0-4.74-6.24-6.47-8.69-2.41
			c-2.16,3.6-4.33,7.2-6.49,10.8c-0.2,0.33-0.58,0.23-0.58-0.16c0-2.74,0-5.49,0-8.23c0-4.74-6.24-6.47-8.69-2.41
			c-2.58,4.3-5.17,8.6-7.75,12.9c-0.67,1.11-0.31,2.54,0.8,3.21c1.11,0.67,2.54,0.31,3.21-0.8c2.39-3.98,4.78-7.96,7.17-11.93
			c0.2-0.33,0.58-0.23,0.58,0.16c0,2.74,0,5.49,0,8.23C55.34,26.43,61.59,28.16,64.03,24.09z"/>
	</g>
</g>
</svg>
