<?xml version="1.0" encoding="utf-8"?>
<!-- Generator: Adobe Illustrator 25.0.1, SVG Export Plug-In . SVG Version: 6.00 Build 0)  -->
<svg version="1.1" id="Layer_1" xmlns="http://www.w3.org/2000/svg" xmlns:xlink="http://www.w3.org/1999/xlink" x="0px" y="0px"
	 viewBox="0 0 176.07 34.02" style="enable-background:new 0 0 176.07 34.02;" xml:space="preserve">
<style type="text/css">
	.st0{fill:#004A8D;}
	.st1{fill:#72ACDE;}
	.st2{fill:#3C3C3B;}
</style>
<g>
	<g>
		<path class="st0" d="M12.5,33.86c5.51-2.19,11.02-4.39,16.52-6.58c5.8-2.31,8.76-8.76,6.73-14.66c-2.03-5.9-8.33-9.17-14.32-7.43
			C18.45,14.75,15.47,24.31,12.5,33.86z"/>
		<path class="st1" d="M11.71,0C2.86,0-2.78,9.44,1.41,17.23c2.81,5.22,5.62,10.44,8.43,15.67c0.8,1.49,2.94,1.49,3.74,0
			c2.81-5.22,5.62-10.44,8.43-15.67C26.2,9.44,20.55,0,11.71,0z M11.71,17.01c-2.94,0-5.31-2.38-5.31-5.31
			c0-2.94,2.38-5.31,5.31-5.31c2.94,0,5.31,2.38,5.31,5.31C17.02,14.63,14.64,17.01,11.71,17.01z"/>
	</g>
	<g>
		<path class="st2" d="M154.11,9.92c-1.17,0-2.13,0.95-2.13,2.13c0,4.25,0,8.5,0,12.76c0,1.17,0.95,2.13,2.13,2.13
			c1.17,0,2.13-0.95,2.13-2.13c0-4.25,0-8.5,0-12.76C156.23,10.87,155.28,9.92,154.11,9.92z"/>
		<path class="st2" d="M147.44,9.92c-1.65,0-3.03,0.39-4.44,1.25c-0.94-2.09-4.06-1.41-4.06,0.87c0,4.25,0,8.5,0,12.76
			c0,1.17,0.95,2.13,2.13,2.13c1.17,0,2.13-0.95,2.13-2.13c0-2.13,0-4.25,0-6.38c0-2.35,1.9-4.25,4.25-4.25
			c1.17,0,2.13-0.95,2.13-2.13C149.57,10.87,148.62,9.92,147.44,9.92z"/>
		<path class="st2" d="M59.95,6.38c-1.64,2.83-3.27,5.67-4.91,8.5c-1.64-2.83-3.27-5.67-4.91-8.5c-1.45-2.51-5.29-1.48-5.29,1.42
			c0,5.67,0,11.34,0,17.01c0,1.17,0.95,2.13,2.13,2.13c1.17,0,2.13-0.95,2.13-2.13c0-3.91,0-7.81,0-11.72
			c1.37,2.37,2.74,4.74,4.11,7.11c0.82,1.42,2.86,1.42,3.68,0c1.37-2.37,2.74-4.74,4.11-7.11c0,3.91,0,7.81,0,11.72
			c0,1.17,0.95,2.13,2.13,2.13c1.17,0,2.13-0.95,2.13-2.13c0-5.67,0-11.34,0-17.01C65.24,4.9,61.4,3.87,59.95,6.38z"/>
		<path class="st2" d="M163.13,11.17c-0.94-2.09-4.06-1.41-4.06,0.87c0,6.61,0,13.23,0,19.84c0,1.17,0.95,2.13,2.13,2.13
			c1.17,0,2.13-0.95,2.13-2.13c0-2.03,0-4.07,0-6.1c5.71,3.3,12.84-0.88,12.76-7.47C175.99,11.72,168.75,7.73,163.13,11.17z
			 M167.57,22.68c-2.35,0-4.25-1.9-4.25-4.25c0-2.35,1.9-4.25,4.25-4.25s4.25,1.9,4.25,4.25C171.82,20.77,169.92,22.68,167.57,22.68
			z"/>
		<path class="st2" d="M95.57,9.92c-4.7,0-8.5,3.81-8.5,8.5c0,4.7,3.81,8.5,8.5,8.5s8.5-3.81,8.5-8.5
			C104.07,13.73,100.27,9.92,95.57,9.92z M95.57,22.68c-2.35,0-4.25-1.9-4.25-4.25c0-2.35,1.9-4.25,4.25-4.25s4.25,1.9,4.25,4.25
			C99.82,20.77,97.92,22.68,95.57,22.68z"/>
		<path class="st2" d="M154.11,2.83c-1.33,0-2.41,1.08-2.41,2.41c0,1.33,1.08,2.41,2.41,2.41c1.33,0,2.41-1.08,2.41-2.41
			C156.51,3.91,155.44,2.83,154.11,2.83z"/>
		<path class="st2" d="M143.19,4.96c0-1.17-0.95-2.13-2.13-2.13c-6.61,0-13.23,0-19.84,0c-1.17,0-2.13,0.95-2.13,2.13
			c0,2.03,0,4.07,0,6.1c-5.71-3.3-12.84,0.88-12.76,7.47c0.08,6.59,7.32,10.59,12.94,7.14c0.94,2.09,4.06,1.41,4.06-0.87
			c0-5.91,0-11.81,0-17.72c1.89,0,3.78,0,5.67,0c0,5.91,0,11.81,0,17.72c0,1.17,0.95,2.13,2.13,2.13s2.13-0.95,2.13-2.13
			c0-5.91,0-11.81,0-17.72c2.6,0,5.2,0,7.8,0C142.24,7.09,143.19,6.13,143.19,4.96z M114.85,22.68c-2.35,0-4.25-1.9-4.25-4.25
			c0-2.35,1.9-4.25,4.25-4.25s4.25,1.9,4.25,4.25C119.1,20.77,117.19,22.68,114.85,22.68z"/>
		<path class="st2" d="M76.29,9.92c-4.7,0-8.5,3.81-8.5,8.5c0,4.7,3.81,8.5,8.5,8.5c4.7,0,8.5-3.81,8.5-8.5
			C84.8,13.73,80.99,9.92,76.29,9.92z M76.29,22.68c-2.35,0-4.25-1.9-4.25-4.25c0-2.35,1.9-4.25,4.25-4.25
			c2.35,0,4.25,1.9,4.25,4.25C80.55,20.77,78.64,22.68,76.29,22.68z"/>
		<polygon class="st2" points="55.03,23.4 55.05,23.4 55.04,23.39 		"/>
	</g>
</g>
</svg>
