<?xml version="1.0" encoding="utf-8"?>
<!-- Generator: Adobe Illustrator 25.0.1, SVG Export Plug-In . SVG Version: 6.00 Build 0)  -->
<svg version="1.1" id="Layer_1" xmlns="http://www.w3.org/2000/svg" xmlns:xlink="http://www.w3.org/1999/xlink" x="0px" y="0px"
	 viewBox="0 0 36.39 34.02" style="enable-background:new 0 0 36.39 34.02;" xml:space="preserve">
<style type="text/css">
	.st0{fill:#004A8D;}
	.st1{fill:#66B2FE;}
</style>
<g>
	<path class="st0" d="M12.5,33.86c5.51-2.19,11.02-4.39,16.52-6.58c5.8-2.31,8.76-8.76,6.73-14.66s-8.33-9.17-14.32-7.43
		C18.45,14.75,15.47,24.31,12.5,33.86z"/>
	<path class="st1" d="M11.71,0C2.86,0-2.78,9.44,1.41,17.23c2.81,5.22,5.62,10.44,8.43,15.67c0.8,1.49,2.94,1.49,3.74,0
		c2.81-5.22,5.62-10.44,8.43-15.67C26.2,9.44,20.55,0,11.71,0z M11.71,17.01c-2.94,0-5.31-2.38-5.31-5.31
		c0-2.94,2.38-5.31,5.31-5.31c2.94,0,5.31,2.38,5.31,5.31S14.64,17.01,11.71,17.01z"/>
</g>
</svg>
