<svg width="24" height="24" viewBox="0 0 24 24" fill="none" xmlns="http://www.w3.org/2000/svg">
<path d="M12 13.5C13.0602 13.4994 14.104 13.6241 15.1318 13.874C16.1579 14.1235 17.1707 14.4955 18.1699 14.9932V14.9941C18.5702 15.2012 18.8911 15.4997 19.1367 15.8994C19.3795 16.2946 19.5005 16.7245 19.5 17.1992V19.5H4.5V17.2002L4.50586 17.0234C4.53241 16.6172 4.65201 16.2455 4.86426 15.9004C5.10992 15.501 5.43009 15.202 5.83008 14.9941L5.8291 14.9932C6.82837 14.4941 7.84128 14.1222 8.86719 13.874C9.89527 13.6254 10.9395 13.5007 12 13.5ZM12 4.5C12.9663 4.5 13.7814 4.83801 14.4717 5.52832C15.162 6.21863 15.5 7.03366 15.5 8C15.5 8.96634 15.162 9.78137 14.4717 10.4717C13.7814 11.162 12.9663 11.5 12 11.5C11.0337 11.5 10.2186 11.162 9.52832 10.4717C8.83801 9.78137 8.5 8.96634 8.5 8C8.5 7.03366 8.83801 6.21863 9.52832 5.52832C10.1754 4.88122 10.9321 4.54365 11.8203 4.50391L12 4.5Z" fill="#5E5B61" stroke="#5E5B61"/>
</svg>
