<svg width="91" height="91" viewBox="0 0 91 91" fill="none" xmlns="http://www.w3.org/2000/svg">
<path d="M46.7716 12.7598C31.9016 12.7598 19.8516 24.8098 19.8516 39.6798C19.8516 58.0798 30.9316 73.8598 46.7716 80.7898C62.6116 73.8598 73.6916 58.0798 73.6916 39.6798C73.6916 24.8098 61.6416 12.7598 46.7716 12.7598ZM46.7716 57.0198C37.1916 57.0198 29.4316 49.2598 29.4316 39.6798C29.4316 30.0998 37.1916 22.3398 46.7716 22.3398C56.3516 22.3398 64.1116 30.0998 64.1116 39.6798C64.1116 49.2598 56.3516 57.0198 46.7716 57.0198Z" fill="#727171"/>
<path d="M44.7705 40.9394L39.2305 35.3994L34.9805 39.6394L44.7705 49.4294L58.5605 35.6394L54.3205 31.3994L44.7705 40.9394Z" fill="#727171"/>
</svg>
