<svg width="24" height="24" viewBox="0 0 24 24" fill="none" xmlns="http://www.w3.org/2000/svg">
<path d="M12.3743 3.4873C9.83703 3.4873 7.78125 5.54309 7.78125 8.0804C7.78125 11.2183 9.67299 13.9117 12.3743 15.0944C15.0757 13.9117 16.9674 11.2183 16.9674 8.0804C16.9674 5.54309 14.9117 3.4873 12.3743 3.4873ZM12.3743 9.75255C11.451 9.75255 10.7022 9.00379 10.7022 8.0804C10.7022 7.15702 11.451 6.40826 12.3743 6.40826C13.2977 6.40826 14.0465 7.15702 14.0465 8.0804C14.0465 9.00379 13.2977 9.75255 12.3743 9.75255Z" fill="#C4C2C6"/>
<path d="M20.022 16.3887L15.1484 21.2622H20.6781C20.903 21.2622 21.1147 21.1537 21.2443 20.9712C21.3766 20.7886 21.411 20.5532 21.3396 20.3415L20.022 16.3887Z" fill="#C4C2C6"/>
<path d="M15.9484 18.9657L19.6472 15.2669L18.9196 13.0814C18.8244 12.7957 18.5572 12.6025 18.2555 12.6025H16.8056C15.787 14.3382 14.2366 15.7246 12.3792 16.5368C10.5219 15.7246 8.97144 14.3382 7.95281 12.6025H6.50027C6.19865 12.6025 5.93142 12.7957 5.83617 13.0814L4.82812 16.1056L15.9484 18.9657Z" fill="#C4C2C6"/>
<path d="M6.11487 17.5313L4.48771 17.1133L3.41087 20.3438C3.33943 20.5581 3.37648 20.7909 3.50612 20.9735C3.63841 21.1561 3.84743 21.2645 4.07232 21.2645H6.11223V17.5313H6.11487Z" fill="#C4C2C6"/>
<path d="M7.17188 17.8037V21.2618H13.6488L15.0749 19.8357L7.17188 17.8037Z" fill="#C4C2C6"/>
</svg>
