<svg width="24" height="24" viewBox="0 0 24 24" fill="none" xmlns="http://www.w3.org/2000/svg">
<g clip-path="url(#clip0_500_16123)">
<path fill-rule="evenodd" clip-rule="evenodd" d="M4 6.5C4 6.10218 4.15804 5.72064 4.43934 5.43934C4.72064 5.15804 5.10218 5 5.5 5H17.5C17.8978 5 18.2794 5.15804 18.5607 5.43934C18.842 5.72064 19 6.10218 19 6.5V14H13.5C13.3674 14 13.2402 14.0527 13.1464 14.1464C13.0527 14.2402 13 14.3674 13 14.5V20H5.5C5.10218 20 4.72064 19.842 4.43934 19.5607C4.15804 19.2794 4 18.8978 4 18.5V6.5ZM16 9H7V8H16V9Z" fill="#5E5B61"/>
<path d="M14 20H14.086C14.4837 19.9997 14.865 19.8414 15.146 19.56L18.561 16.146C18.842 15.8648 18.9999 15.4835 19 15.086V15H14V20Z" fill="#5E5B61"/>
</g>
<rect x="4.5" y="5.5" width="14" height="14" stroke="#5E5B61"/>
<defs>
<clipPath id="clip0_500_16123">
<rect x="4" y="5" width="15" height="15" fill="white"/>
</clipPath>
</defs>
</svg>
